<?xml version="1.0" encoding="UTF-8"?>
<svg version="1.1" viewBox="0 0 2048 1616" width="736" height="581" xmlns="http://www.w3.org/2000/svg">
<path transform="translate(0)" d="m0 0h2048v1616h-2048z"/>
<path transform="translate(1011,318)" d="m0 0h19l33 2 35 4 31 6 32 8 36 12 22 9 26 12 24 13 21 13 16 11 14 10 14 11 14 12 13 12 10 9 11 11 7 8 9 10 9 11 11 14 13 18 14 22 12 21 10 19 12 27 11 29 9 29 8 34 5 30 4 40 1 19v31l-2 27-4 30-7 35-8 29-10 30-12 29-14 29-13 23-11 17-13 19-13 17-9 11-12 14-14 15-21 21-11 9-10 9-13 10-17 12-25 16-21 12-23 12-28 12-15 6-31 10-36 9-27 5-31 4-29 2h-33l-30-2-33-4-38-8-30-8-34-12-23-10-29-14-27-16-19-12-18-13-18-14-10-9-8-7-15-15-2-1v-2l-4-2-7-7-7-8-11-12-11-14-10-13-11-16-14-22-10-18-12-23-12-28-10-27-7-23-7-28-7-39-3-28-1-17v-60l3-30 6-35 9-36 12-36 11-27 16-33 13-23 11-17 11-16 13-17 8-10 13-15 12-13 17-17 8-7 10-9 14-11 18-14 24-16 18-11 26-14 21-10 33-13 25-8 40-10 26-5 34-4z" fill="#1F1E22"/>
<path transform="translate(1011,318)" d="m0 0h19l33 2 35 4 31 6 32 8 36 12 22 9 26 12 24 13 21 13 16 11 14 10 14 11 14 12 13 12 10 9 11 11 7 8 9 10 9 11 11 14 13 18 14 22 12 21 10 19 12 27 11 29 9 29 8 34 5 30 4 40 1 19v31l-2 27-4 30-7 35-8 29-10 30-12 29-14 29-13 23-11 17-13 19-13 17-9 11-12 14-14 15-21 21-11 9-10 9-13 10-17 12-25 16-21 12-23 12-28 12-15 6-31 10-36 9-27 5-31 4-29 2h-33l-30-2-33-4-38-8-30-8-34-12-23-10-29-14-27-16-19-12-18-13-18-14-10-9-8-7-15-15-2-1v-2l-4-2-7-7-7-8-11-12-11-14-10-13-11-16-14-22-10-18-12-23-12-28-10-27-7-23-7-28-7-39-3-28-1-17v-60l3-30 6-35 9-36 12-36 11-27 16-33 13-23 11-17 11-16 13-17 8-10 13-15 12-13 17-17 8-7 10-9 14-11 18-14 24-16 18-11 26-14 21-10 33-13 25-8 40-10 26-5 34-4zm2 153-27 2-29 4-30 7-30 10-19 8-16 8-22 12-16 11-16 12-14 12-10 9-16 16-7 8-11 13-13 18-13 21-10 18-11 24-10 28-3 10-1 3h-31l-13 2-15 5-14 8-10 9-9 13-5 14-5 23v7l20 8 19 8h2v6l-12 1-1 1v58l1 1h71v4h2l1 9 7 24 11 27 9 19 12 21 10 15 12 16 8 10 12 14 13 13 8 7 12 11 17 13 17 11 15 9 20 11 23 10 30 10 24 6 24 4 22 2h49l21-2 28-5 24-6 32-11 20-9 25-13 24-16 19-14 12-11 8-7 19-19 9-11 14-18 10-15 13-22 12-24 9-23 7-21 4-14 2-3 14-3 19-7 14-8 10-9 7-7 3-5 1-11 8-1 1-59-1-1h-18l2-39-16-8-15-5-15-3-8-1h-11l-1-4-11-33-9-20-11-22-12-19-11-16-8-10-12-14-12-13-12-12-8-7-16-13-18-13-20-12-25-13-24-10-27-9-25-6-25-4-19-2-17-1z"/>
<path transform="translate(1235,875)" d="m0 0 5 2 14 13 50 1-1-6 10 2 8 2 23 2-1 8-12 36-12 27-10 18-13 21-14 18-8 10-9 10-10 11-8 7-11 10-11 9-15 11-19 12-21 12-17 8-24 9-23 7-27 6-33 4-30 1-31-2-28-4-25-6-23-7-27-11-20-10-20-12-12-8-12-9-14-12-11-9-18-18-9-11-12-15-11-16-12-20-12-23-11-27-8-26-2-7v-4l27-3 8-2h6v5h150l11 1h25l3-1 119-1 6-1 5 2h177z"/>
<path transform="translate(994,482)" d="m0 0h46l30 3 27 5 25 7 20 7 23 10 21 11 24 15 12 9 11 9 14 12 24 24 9 11 13 17 12 19 12 21 9 19 10 26 4 12v4l-2 1-15 1-11 3h-6l-1-2-113-1v14l-6-4-12-11h-49l-1 1h-230l-7 2h-4v-19l-31 13-9 4h-103v7l-9-2-5-2-25-2 1-9 10-28 9-20 14-26 14-21 10-13 11-13 11-12 20-20 14-11 13-10 15-10 15-9 25-13 28-11 25-8 34-7z"/>
<path transform="translate(1011,318)" d="m0 0h19l33 2 35 4 31 6 32 8 36 12 22 9 26 12 24 13 21 13 16 11 14 10 14 11 14 12 13 12 10 9 11 11 7 8 9 10 9 11 11 14 13 18 14 22 12 21 10 19 12 27 11 29 9 29 8 34 5 30 4 40 1 19v31l-2 27-4 30-7 35-8 29-10 30-12 29-14 29-13 23-11 17-13 19-13 17-9 11-12 14-14 15-21 21-11 9-10 9-13 10-17 12-25 16-21 12-23 12-28 12-15 6-31 10-36 9-27 5-31 4-29 2h-33l-30-2-33-4-38-8-30-8-34-12-23-10-29-14-27-16-19-12-18-13-18-14-10-9-8-7-15-15-2-1v-2l-4-2-7-7-7-8-11-12-11-14-10-13-11-16-14-22-10-18-12-23-12-28-10-27-7-23-7-28-7-39-3-28-1-17v-60l3-30 6-35 9-36 12-36 11-27 16-33 13-23 11-17 11-16 13-17 8-10 13-15 12-13 17-17 8-7 10-9 14-11 18-14 24-16 18-11 26-14 21-10 33-13 25-8 40-10 26-5 34-4zm2 14-33 2-34 4-27 5-32 8-36 12-25 10-25 12-22 12-21 13-17 12-12 9-14 11-13 11-16 15-24 24-7 8-11 13-15 20-16 24-12 20-15 28-14 32-10 29-7 24-6 26-6 36-2 18-1 15v47l3 39 5 33 6 27 8 28 9 26 12 29 13 26 13 23 13 20 10 14 10 13 13 16 12 13 7 8 15 15 8 7 14 13 10 8 18 14 24 16 25 15 27 14 28 12 44 15 28 7 41 7 29 3 22 1h29l33-2 30-4 36-7 25-7 30-10 27-11 25-12 17-9 26-16 20-14 14-11 11-9 10-9 8-7 17-16 16-17 9-10 11-14 14-18 8-12 12-19 10-18 12-23 11-25 12-34 8-28 6-26 4-25 3-29 1-13v-47l-3-37-5-32-7-31-8-28-8-22-11-26-12-25-12-22-14-22-10-14-12-16-11-13-9-11-11-12-25-25-11-9-17-14-16-12-15-10-21-13-18-10-22-11-30-13-36-12-26-7-36-7-35-4-36-2z" fill="#D69D78"/>
<path transform="translate(661,754)" d="m0 0h46l16 2 11 4 10 6 8 8 6 10 3 9 1 6v16l-2 11-6 12-9 10-14 8-14 4h-74v-2l10-5 1-1 1-89-16 6-9 6-7 11-4 2-1-3 4-10 8-10 9-6 13-4z" fill="#E8E5E3"/>
<path transform="translate(688,889)" d="m0 0h9l3 7 7 24 8 21 8 18 11 21 10 16 12 17 11 14 12 14 15 15 11 9 10 9 19 14 20 12 16 9 21 10 27 10 25 7 26 5 26 3 27 1 24-1 33-4 27-6 26-8 28-11 23-12 21-13 17-12 13-11 11-9 8-8 6-5 7-8 10-11 13-17 11-16 13-22 8-15 12-29 9-28 3-8h10l-2 10-7 23-11 28-14 28-11 18-11 16-10 13-9 11-11 12-17 17-8 7-15 12-20 14-18 11-23 12-23 10-34 11-32 7-21 3-13 1h-49l-29-3-26-5-31-9-24-9-19-9-23-13-27-18-16-13-10-9-16-15-7-7-9-11-10-12-13-18-11-18-13-24-10-23-7-20-5-17-2-9z" fill="#D69D78"/>
<path transform="translate(1013,471)" d="m0 0h16l27 2 29 4 26 6 20 6 21 8 24 11 24 13 15 10 16 12 10 8 10 9 8 7 14 14 7 8 12 14 12 17 11 17 9 16 11 22 8 21 8 24v4h-9l-3-5-9-26-11-25-10-19-13-21-10-14-8-10-12-14-22-22-11-9-13-11-18-12-20-12-23-12-28-11-26-8-23-5-29-4-13-1h-46l-24 3-34 7-36 12-23 10-23 12-17 11-17 12-16 13-10 9-20 20-9 11-10 12-12 17-12 20-13 25-9 23-8 24-2 2-9-1 2-9 9-27 11-25 10-19 15-24 11-15 9-11 10-11 7-8 17-17 11-9 16-13 24-16 24-13 19-9 23-9 19-6 30-7 29-4z" fill="#D69D78"/>
<path transform="translate(2043)" d="m0 0h5v1616h-5z" fill="#EAEAEA"/>
<path transform="translate(1161,754)" d="m0 0 5 3 10 8 13 11 15 13 28 24v-49l-4-4-8-4 1-2h56v3l-10 5-1 3v66l1 29-5-1-12-11-11-9-11-10-11-9-11-10-12-9 1 2 1 50 6 3 5 2v3h-54l-3-1 1-3 9-4 1-2z" fill="#E9E6E4"/>
<path transform="translate(1042,754)" d="m0 0h38v3l-13 5-7 6-9 11-11 13-2 3 8 11 10 15 17 25 7 7 6 3 8-1 4-3 1-3v-84l-4-5-8-4 1-2h56v3l-9 5h-2v91l5 2 6 3-1 3h-60l-28-1-16-8-7-6-13-20-8-13 2-4 14-19 16-21 4-5v-4l-5-3z" fill="#E9E7E5"/>
<path transform="translate(1338,754)" d="m0 0h16l17 2 15 4 3 1-1 29-4-1-7-13-4-5-9-5-9-2h-8l-11 3-8 6-6 10-3 12v28l4 13 4 7 5 4 8 3h10l10-4 3-4v-26l-10-4 1-2h53l-1 3-9 4v25l-7 6-17 8-17 4h-27l-15-4-13-7-9-9-7-14-2-9v-20l3-11 6-11 9-9 10-6 11-4z" fill="#E8E5E3"/>
<path transform="translate(768,754)" d="m0 0h83l3 1 1 26-4 1-1-4-2-6-4-5-8-3-23-1v39l-1 2 20-1 8-4 3-8h3l1 34-4 1-3-7-4-3-5-2-18-1v38l23-1 10-4 7-7 7-14h3l-1 12-4 22-1 1h-89l1-3 10-5v-88l-4-4-7-3z" fill="#E8E4E2"/>
<path transform="translate(906,754)" d="m0 0 30 1 9 1-1 14-1 10h-3l-5-9-5-4-9-3h-9l-9 3-5 5-1 4 3 6 21 10 20 9 7 5 5 7 2 7v11l-3 10-9 10-8 5-13 4h-27l-12-3-8-4-4-4-1-4v-7l4-13 4-1 3 11 6 8 9 5 8 2h13l8-3 5-6v-6l-4-6-16-8-24-11-9-8-4-8v-17l4-9 7-8 8-4 3-1z" fill="#E9E6E4"/>
<path transform="translate(964,754)" d="m0 0h56v3l-9 5-2 2v86l5 5 6 3v3h-54l-2-1 1-3 8-4 2-2v-87l-4-4-7-3z" fill="#E9E7E6"/>
<path transform="translate(688,763)" d="m0 0h17l8 4 7 8 5 11 2 15v11l-2 16-4 9-6 8-8 5-3 1h-16z" fill="#201F23"/>
<path transform="translate(1171,395)" d="m0 0h14l10 5 6 7 2 5 1 8-2 13-5 12-7 9-8 6-4 1h-12l-8-3-5-4-5-8-2-12 2-11 5-12 6-8 7-6z" fill="#E9E6E4"/>
<path transform="translate(846,400)" d="m0 0 4 1 26 56-1 3-7 3-4 1-26-15-12-7-3-2 11 21 6 13-1 3-10 5h-3l-16-33-11-24 1-3 8-4 5 1 25 14 13 8-16-33 1-3z" fill="#E9E6E4"/>
<path transform="translate(730,473)" d="m0 0h10l8 4 1 4-10 8-7-2-7 4-2 3v7l1 1h7l14-7 8-2 8 1 6 4 4 5 2 5v7l-5 10-5 6-9 6-6 2h-10l-7-3-3-3v-3l8-7h3l2 1h8l7-6 1-7-2-3-7 1-14 7-12 2-7-2-6-7-2-6 1-10 6-10 7-6z" fill="#E8E4E2"/>
<path transform="translate(993,367)" d="m0 0h23l1 1-1 10-20 2h-8v14l27-2 1 1v12l-27 1 1 13h29l1 1v10l-1 1-25 2h-19l-3-47v-18z" fill="#E8E5E3"/>
<path transform="translate(911,379)" d="m0 0h15l10 5 6 7 2 5-8 3-7 1-5-6-2-1h-9l-6 4-3 5v14l3 8 4 5 4 2h10l6-4 2-4 1-6 11-2 4-1v8l-3 9-9 10-10 4-10 1-10-2-9-6-6-8-4-11-1-6v-8l3-10 4-6 7-6z" fill="#E8E6E4"/>
<path transform="translate(1302,475)" d="m0 0h14l8 4 5 5 5 8 1 2v10l-6 8-5 3-9-1 2 5v9l-4 6-5 4-4 1h-8l-9-3-9-7-6-10-1-3v-7l3-8h4l8 7v7l4 7 4 2h6l3-3v-6l-6-8-2-1 1-4 5-5 5 2 3 3 6 1 5-3v-6l-4-5-7-1-6 1-7-7 1-5z" fill="#E8E5E3"/>
<path transform="translate(1095,373)" d="m0 0h13l9 4 7 6 3 7v7l-5 10-8 7-18 12 23 4 1 1-1 12-14-2-32-6-1-4 3-8 22-14 10-7 4-5v-6l-5-5h-6l-8 8-12-3 1-6 5-7 6-4z" fill="#E8E5E3"/>
<path transform="translate(1246,428)" d="m0 0 11 2 9 6 5 6 3 8-1 8-4 6-6 5-11 4-19 4-1 1 21 12-1 5-5 7-14-8-16-10-9-6 1-5 4-5 36-8 8-4 1-2v-6l-2-4-4-2-7 1-5 4-10-7 1-4 6-5z" fill="#E8E5E3"/>
<path transform="translate(1178,1187)" d="m0 0 9 1 7 4 5 7 2 6v11l-4 7-5 4-5 2h-10l-6-3-6-7-3-6-1-8 3-9 8-7z" fill="#E8E4E1"/>
<path transform="translate(1014,1221)" d="m0 0h20l7 3 5 6 2 5v14l-5 8-6 4-8 1h-14l-1-1z" fill="#E8E5E3"/>
<path transform="translate(890,1199)" d="m0 0 9 2 3 9 5 17 6-20 3-1 7 2-1 9-10 30-3 1-6-4-8-24-6 19-4 1-6-2 2-9z" fill="#E8E4E1"/>
<path transform="translate(772,440)" d="m0 0 5 5 32 48-1 3-11 7-8-11-26-39-2-5z" fill="#E9E6E4"/>
<path transform="translate(682,1040)" d="m0 0 8 2 5 4 4 8v8l-4 6-4-1-2-3v-10l-1-3-6-1 3 14v9l-5 6-2 1h-8l-6-4-6-9-1-9 4-6 4-1 3 5v10l3 4h4l-1-8-2-6v-8l5-6z" fill="#E8E4E1"/>
<path transform="translate(1074,1216)" d="m0 0 10 1 5 4 2 7-1 1-9-1-2-2h-7l-1 5 15 3 6 4 2 4v6l-4 6-4 3-8 2-9-1-5-4-3-6 1-4 9 2 3 3h6l3-3-1-3-15-3-5-3-2-5 1-8 5-5z" fill="#E8E3DF"/>
<path transform="translate(1236,1157)" d="m0 0h7l6 4 1 3-6 4-8-1-4 4v3l9-1 6-2 8 1 6 7v7l-4 6-6 5-5 2h-8l-5-3-2-4 6-5 3 1v2l6-1 4-3 1-5-11 2-3 1h-9l-5-5-1-2v-8l4-6 7-5z" fill="#E8E3E0"/>
<path transform="translate(1355,1036)" d="m0 0 4 1 4 4-9 14 3 3 4 1 2-5 5-8 4 1 3 2-1 5-6 9 2 4 3 1 9-14 6 2 2 3-14 21-4 1-15-11-11-7-5-4 2-5 10-15z" fill="#E8E4E1"/>
<path transform="translate(836,1179)" d="m0 0h11l6 3 6 7v9l-4 1-5-5-3-5-7-1 1 5 8 7 4 7-1 6-6 7h-12l-7-4-5-6-1-2v-7l1-3 6 2 6 10 7 1 1-3-6-7-5-5-2-3v-6l4-6z" fill="#E8E4E2"/>
<path transform="translate(801,1155)" d="m0 0 6 2 19 12-4 7-4-1-11-7-3-1-1 7 11 7 1 4-3 4-5-2-8-5h-3l-1 6 13 8-2 7h-4l-21-13 1-4 12-20z" fill="#E8E4E1"/>
<path transform="translate(935,1212)" d="m0 0 11 1 16 3-1 9-17-3-2 8 11 1 5 1-1 8-10-1-7-2v8l16 3v8l-2 1-25-5-1-1 1-12 5-26z" fill="#E8E4E1"/>
<path transform="translate(974,1218)" d="m0 0 27 2 1 4-1 5-18-1v8l16 1v8h-9l-7-1-2 8 18 1v8h-10l-18-2-1-3z" fill="#E8E3E0"/>
<path transform="translate(1179,407)" d="m0 0 6 2 3 3 1 10-4 13-6 10-8 4-7-3-3-6 1-10 5-13 8-9z" fill="#020202"/>
<path transform="translate(736,1100)" d="m0 0 8 6 1 3-5 16 13-5 7 1 4 4-1 3-20 6-7 3-9 9-4-2-3-3 1-4 7-8 5-18z" fill="#E8E2DF"/>
<path transform="translate(1311,1095)" d="m0 0h2l8 29 2 4 4 2 2 2-1 4-3 4-4-1-8-8-24-7-5-2 6-7 8 1 11 3-4-12v-6z" fill="#E8E3E0"/>
<path transform="translate(1277,1126)" d="m0 0h2l4 7-7 6 1 5 13 16 3 4-2 4-3 3-4-1-14-18-3-4v-2l-9 7h-3l-3-4 1-4 17-13z" fill="#E8E3E1"/>
<path transform="translate(708,1069)" d="m0 0h3l9 11 9 10 2 5-4 4-4-1-4-6-4 1-10 9-11 9-4-2-3-4 2-4 11-9 10-8-2-4-4-4v-3h2z" fill="#E8E4E1"/>
<path transform="translate(1147,1200)" d="m0 0h3l1 8-7 2h-4l8 27v5l-5 3-4-1-8-26v-4l-9 3-4-1-1-7z" fill="#E8E3E0"/>
<path transform="translate(772,1132)" d="m0 0h2l3 3 3 2-2 4-8 11-8 10 2 4 9 7-1 4-2 3-5-2-13-10-4-3 2-4 9-12z" fill="#E8E4E1"/>
<path transform="translate(1323,1081)" d="m0 0 4 1 14 12 6 5 4-1 7-10 4 1 3 3-1 4-12 14-2 3-5-2-11-10-10-8-6-5 3-5z" fill="#E8E5E3"/>
<path transform="translate(1179,1196)" d="m0 0 6 1 5 6 1 3v10l-4 4-5 1-6-3-4-7v-10l4-4z" fill="#020202"/>
<path transform="translate(1024,1229)" d="m0 0h8l5 4 2 6-1 9-5 5-9 1-1-1v-23z" fill="#040404"/>
<path transform="translate(1009,802)" d="m0 0 8 1-2 4-3 4 2 5 1 4-6 1-1-12z" fill="#030303"/>
<path transform="translate(1231,795)" d="m0 0h1l1 9v10l-7-5 2-5 2-3z" fill="#020202"/>
</svg>
